<mxfile host="app.diagrams.net" modified="2021-01-22T10:42:28.181Z" agent="5.0 (Windows)" etag="EK2aTJKicwyNuDkQpeC5" version="14.2.6" type="github">
  <diagram name="Page-1" id="bd83a815-5ea8-2e97-e5ec-87c9f400f2fa">
    <mxGraphModel dx="1422" dy="791" grid="1" gridSize="10" guides="1" tooltips="1" connect="1" arrows="1" fold="1" page="1" pageScale="1.5" pageWidth="1169" pageHeight="826" background="#ffffff" math="0" shadow="0">
      <root>
        <mxCell id="0" style=";html=1;" />
        <mxCell id="1" style=";html=1;" parent="0" />
        <mxCell id="1516e18e63f93b96-1" value="&lt;table style=&quot;width: 100% ; height: 100% ; border-collapse: collapse&quot; width=&quot;100%&quot; cellpadding=&quot;4&quot; border=&quot;1&quot;&gt;&lt;tbody&gt;&lt;tr style=&quot;background-color: #a7c942 ; color: #ffffff ; border: 1px solid #98bf21&quot;&gt;&lt;th&gt;http Methode&lt;/th&gt;&lt;th&gt;URI&lt;br&gt;&lt;/th&gt;&lt;th&gt;Funktion&lt;/th&gt;&lt;th&gt;Beschreibung&lt;/th&gt;&lt;td&gt;&lt;b&gt;Body-Inhalt&lt;/b&gt;&lt;br&gt;&lt;/td&gt;&lt;/tr&gt;&lt;tr style=&quot;border: 1px solid #98bf21&quot;&gt;&lt;td&gt;POST&lt;br&gt;&lt;/td&gt;&lt;td&gt;/api/zugriffsverwaltung/login&lt;br&gt;&lt;/td&gt;&lt;td&gt;verifyLogin()&lt;br&gt;&lt;/td&gt;&lt;td&gt;prüft Credentials, gibt Accesstoken und Refreshtoken&lt;br&gt;&lt;/td&gt;&lt;td&gt;{&lt;br&gt;&amp;nbsp; user: &quot;admin&quot;,&lt;br&gt;&amp;nbsp; password: &quot;admin&quot;&lt;br&gt;}&lt;br&gt;&lt;/td&gt;&lt;/tr&gt;&lt;tr style=&quot;background-color: #eaf2d3 ; border: 1px solid #98bf21&quot;&gt;&lt;td&gt;POST&lt;br&gt;&lt;/td&gt;&lt;td&gt;/api/zugriffsverwaltung/token&lt;/td&gt;&lt;td&gt;newRefreshToken()&lt;br&gt;&lt;/td&gt;&lt;td&gt;gibt neuen refreshtoken zurück&lt;br&gt;&lt;/td&gt;&lt;td&gt;{&lt;br&gt;&amp;nbsp; refreshToken: &quot;RT&quot;&lt;br&gt;}&lt;/td&gt;&lt;/tr&gt;&lt;tr style=&quot;border: 1px solid #98bf21&quot;&gt;&lt;td&gt;POST&lt;br&gt;&lt;/td&gt;&lt;td&gt;/api/zugriffsverwaltung/newUser&lt;/td&gt;&lt;td&gt;createUser()&lt;br&gt;&lt;/td&gt;&lt;td&gt;erstellt einen neuen Nutzer für&lt;br&gt;&lt;/td&gt;&lt;td&gt;{&lt;br&gt;&amp;nbsp; user: &quot;something&quot;,&lt;br&gt;&amp;nbsp; password: &quot;new&quot;&lt;br&gt;}&lt;/td&gt;&lt;/tr&gt;&lt;/tbody&gt;&lt;/table&gt;" style="text;html=1;strokeColor=#c0c0c0;fillColor=#ffffff;overflow=fill;rounded=0;shadow=1;fontSize=14;fontColor=#000000;" parent="1" vertex="1">
          <mxGeometry x="180" y="270" width="1075" height="260" as="geometry" />
        </mxCell>
        <mxCell id="fNutxt6jnyIekaHuC7iD-2" value="&lt;font style=&quot;font-size: 48px&quot;&gt;Zugriffsverwaltung&lt;/font&gt;" style="text;html=1;strokeColor=none;fillColor=none;align=center;verticalAlign=middle;whiteSpace=wrap;rounded=0;" parent="1" vertex="1">
          <mxGeometry x="660" y="210" width="160" height="30" as="geometry" />
        </mxCell>
      </root>
    </mxGraphModel>
  </diagram>
</mxfile>
